<svg xmlns="http://www.w3.org/2000/svg"><defs>
<symbol id="arrow-right" viewBox="0 0 24 24"><path d="M4 12h15m-6-6 6 6-6 6"/></symbol>
<symbol id="arrow-left" viewBox="0 0 24 24"><path d="M20 12H5m6-6-6 6 6 6"/></symbol>
<symbol id="arrow-up-right" viewBox="0 0 24 24"><path d="M5 19 19 5M6 5h13v13"/></symbol>
<symbol id="chevron-down" viewBox="0 0 24 24"><path d="m6 9 6 6 6-6"/></symbol>
<symbol id="grid" viewBox="0 0 24 24"><rect x="3" y="3" width="7" height="7" rx="1"/><rect x="14" y="3" width="7" height="7" rx="1"/><rect x="3" y="14" width="7" height="7" rx="1"/><rect x="14" y="14" width="7" height="7" rx="1"/></symbol>
<symbol id="search" viewBox="0 0 24 24"><circle cx="10.5" cy="10.5" r="6.5"/><path d="m16 16 5 5"/></symbol>
<symbol id="star" viewBox="0 0 24 24"><path d="m12 2 3 6.5 7 1-5 5 1.2 7-6.2-3.3-6.2 3.3 1.2-7-5-5 7-1Z"/></symbol>
<symbol id="check" viewBox="0 0 24 24"><path d="m4 12 5 5L20 6"/></symbol>
<symbol id="close" viewBox="0 0 24 24"><path d="m6 6 12 12M18 6 6 18"/></symbol>
<symbol id="play" viewBox="0 0 24 24"><path d="m8 4 13 8-13 8Z"/></symbol>
<symbol id="pause" viewBox="0 0 24 24"><path d="M6 4h4v16H6zm8 0h4v16h-4z"/></symbol>
<symbol id="restart" viewBox="0 0 24 24"><path d="M4 10a8 8 0 1 1 1 8M4 3v7h7"/></symbol>
<symbol id="garage" viewBox="0 0 24 24"><path d="m2 9 10-6 10 6v12h-3V11H5v10H2ZM8 21v-6h8v6M5 21h14M8 18h8"/></symbol>
<symbol id="steering" viewBox="0 0 24 24"><circle cx="12" cy="12" r="9"/><circle cx="12" cy="12" r="2.5"/><path d="m3.5 9.5 6 2m5 0 6-2M12 14.5V21M6 6.5c4-2 8-2 12 0"/></symbol>
<symbol id="nitro" viewBox="0 0 24 24"><path d="M9 2h6m-3 0v3m-4 0h8v4l3 3v8l-2 2H7l-2-2v-8l3-3Z"/><path d="m13 10-4 6h4l-2 5 6-8h-4l2-3"/></symbol>
<symbol id="volume" viewBox="0 0 24 24"><path d="M3 9h4l5-5v16l-5-5H3Zm13-1a6 6 0 0 1 0 8m3-11a10 10 0 0 1 0 14"/></symbol>
<symbol id="volume-off" viewBox="0 0 24 24"><path d="M3 9h4l5-5v16l-5-5H3Zm13 0 6 6m0-6-6 6"/></symbol>
<symbol id="fullscreen" viewBox="0 0 24 24"><path d="M9 3H3v6m12-6h6v6M3 15v6h6m6 0h6v-6"/></symbol>
<symbol id="trophy" viewBox="0 0 24 24"><path d="M7 3h10v7c0 7-10 7-10 0ZM7 5H3v3c0 3 2 4 5 4m9-7h4v3c0 3-2 4-5 4m-4 3v5m-5 1h10"/></symbol>
<symbol id="timer" viewBox="0 0 24 24"><circle cx="12" cy="14" r="8"/><path d="M9 2h6m-3 0v4m6 1 2-2m-8 5v4l3 2"/></symbol>
<symbol id="flag" viewBox="0 0 24 24"><path d="M5 22V3h14v11H5m5-11v11m5-11v11M5 8.5h14"/></symbol>
<symbol id="route" viewBox="0 0 24 24"><path d="M7 4h11c5 0 5 6 1 7l-5 1c-4 1-1 7-5 8H6c-5 0-5-6-2-8l2-1c3-2-2-7 1-7Z"/><path d="m8 3 1 3m-4 8 3 1"/></symbol>
<symbol id="paint" viewBox="0 0 24 24"><path d="m8 2 12 12-8 8L1 11ZM6 5l11 11M20 4s-3 3-3 5a3 3 0 0 0 6 0c0-2-3-5-3-5Z"/></symbol>
<symbol id="wrench" viewBox="0 0 24 24"><path d="M14 3a6 6 0 0 0-6 8L2 17a3 3 0 0 0 5 5l6-6a6 6 0 0 0 8-6l-5 3-4-4 3-6Z"/></symbol>
<symbol id="drift" viewBox="0 0 24 24"><path d="m9 4 9-2 4 8-9 3Zm-4 8c-5 5 7 3 2 9m5-6c-4 4 6 2 3 7m-3-16 5-1"/></symbol>
<symbol id="keyboard" viewBox="0 0 24 24"><rect x="2" y="5" width="20" height="14" rx="2"/><path d="M5 9h1m3 0h1m3 0h1m3 0h2M5 12h1m3 0h1m3 0h1m3 0h2M7 16h10"/></symbol>
<symbol id="phone" viewBox="0 0 24 24"><rect x="3" y="6" width="18" height="12" rx="2"/><path d="M18 10v4M7 12h5m-2-2 2 2-2 2"/></symbol>
<symbol id="credits" viewBox="0 0 24 24"><path d="M8 2h8l6 6v8l-6 6H8l-6-6V8Z" fill="currentColor" stroke="none"/><path d="M9 5h6l4 4v6l-4 4H9l-4-4V9Z" fill="#110017" stroke="none"/><path d="M16 8H9l-2 2v5l2 2h7v-3h-5v-3h5Z" fill="currentColor" stroke="none"/></symbol>
<symbol id="speedometer" viewBox="0 0 24 24"><path d="M4 19a10 10 0 1 1 16 0Z"/><path d="M12 4v2M5.5 7l1.4 1.4M18.5 7l-1.4 1.4M3 13h2m14 0h2m-9 1 4-5"/><circle cx="12" cy="14" r="1.5"/></symbol>
<symbol id="acceleration" viewBox="0 0 24 24"><path d="M3 19h18M4 15l5-5 4 3 7-9m-6 0h6v6"/><path d="M5 19v-2m5 2v-4m5 4v-3m5 3v-6"/></symbol>
</defs></svg>
